<?xml version="1.0" encoding="UTF-8"?>
<svg width="200px" height="60px" viewBox="0 0 200 60" version="1.1" xmlns="http://www.w3.org/2000/svg" xmlns:xlink="http://www.w3.org/1999/xlink">
    <defs>
        <linearGradient x1="0%" y1="0%" x2="100%" y2="100%" id="simworkGradient">
            <stop stop-color="#6D28D9" offset="0%"></stop>
            <stop stop-color="#10B981" offset="50%"></stop>
            <stop stop-color="#0EA5E9" offset="100%"></stop>
        </linearGradient>
    </defs>
    <g stroke="none" stroke-width="1" fill="none" fill-rule="evenodd">
        <g transform="translate(10, 10)">
            <!-- Icon -->
            <path d="M20,0 C31.0457,0 40,8.9543 40,20 C40,31.0457 31.0457,40 20,40 C8.9543,40 0,31.0457 0,20 C0,8.9543 8.9543,0 20,0 Z" fill="url(#simworkGradient)"></path>
            <path d="M15,12 L25,12 L25,16 L15,16 L15,12 Z M12,18 L28,18 L28,22 L12,22 L12,18 Z M15,24 L25,24 L25,28 L15,28 L15,24 Z" fill="#FFFFFF"></path>
            
            <!-- Text -->
            <g transform="translate(45, 12)" fill="#000000">
                <path d="M5.5,24 C3.5,24 1.9,23.4 0.7,22.2 C-0.5,21 -0.1,19.2 0.3,18.4 L2.7,19.6 C2.5,20 2.3,20.6 2.7,21 C3.1,21.4 3.9,21.6 5.1,21.6 C6.3,21.6 7.1,21.4 7.5,21 C7.9,20.6 8.1,20 7.9,19.6 C7.7,19.2 7.3,18.8 6.7,18.6 C6.1,18.4 5.3,18.2 4.3,18 C3.3,17.8 2.3,17.4 1.5,17 C0.7,16.6 0.1,16 -0.3,15.2 C-0.7,14.4 -0.7,13.4 -0.3,12.4 C0.1,11.4 0.9,10.6 1.9,10 C2.9,9.4 4.1,9 5.5,9 C7.5,9 9.1,9.6 10.3,10.8 C11.5,12 11.1,13.8 10.7,14.6 L8.3,13.4 C8.5,13 8.7,12.4 8.3,12 C7.9,11.6 7.1,11.4 5.9,11.4 C4.7,11.4 3.9,11.6 3.5,12 C3.1,12.4 2.9,13 3.1,13.4 C3.3,13.8 3.7,14.2 4.3,14.4 C4.9,14.6 5.7,14.8 6.7,15 C7.7,15.2 8.7,15.6 9.5,16 C10.3,16.4 10.9,17 11.3,17.8 C11.7,18.6 11.7,19.6 11.3,20.6 C10.9,21.6 10.1,22.4 9.1,23 C8.1,23.6 6.9,24 5.5,24 Z" fill="#000000"></path>
                <path d="M14,23.5 L14,9.5 L17,9.5 L17,23.5 L14,23.5 Z" fill="#000000"></path>
                <path d="M28,23.5 L28,17.5 C28,16.3 27.7,15.4 27.1,14.8 C26.5,14.2 25.6,13.9 24.5,13.9 C23.4,13.9 22.5,14.2 21.9,14.8 C21.3,15.4 21,16.3 21,17.5 L21,23.5 L18,23.5 L18,9.5 L21,9.5 L21,11.7 C21.5,10.9 22.2,10.3 23.1,9.9 C24,9.5 25,9.3 26.1,9.3 C27.2,9.3 28.2,9.5 29.1,10 C30,10.5 30.7,11.2 31.2,12.1 C31.7,13 32,14.1 32,15.4 L32,23.5 L28,23.5 Z" fill="#000000"></path>
                <path d="M46,23.5 L46,21.3 C45.5,22.1 44.8,22.7 43.9,23.1 C43,23.5 42,23.7 40.9,23.7 C39.8,23.7 38.8,23.5 37.9,23 C37,22.5 36.3,21.8 35.8,20.9 C35.3,20 35,18.9 35,17.6 L35,9.5 L38,9.5 L38,17.5 C38,18.7 38.3,19.6 38.9,20.2 C39.5,20.8 40.4,21.1 41.5,21.1 C42.6,21.1 43.5,20.8 44.1,20.2 C44.7,19.6 45,18.7 45,17.5 L45,9.5 L48,9.5 L48,23.5 L46,23.5 Z" fill="#000000"></path>
                <path d="M60.5,23.7 C58.9,23.7 57.5,23.3 56.3,22.6 C55.1,21.9 54.1,20.9 53.5,19.6 C52.8,18.3 52.5,16.9 52.5,15.3 C52.5,13.7 52.8,12.3 53.5,11 C54.1,9.7 55.1,8.7 56.3,8 C57.5,7.3 58.9,6.9 60.5,6.9 C62.1,6.9 63.5,7.3 64.7,8 C65.9,8.7 66.9,9.7 67.5,11 C68.2,12.3 68.5,13.7 68.5,15.3 C68.5,16.9 68.2,18.3 67.5,19.6 C66.9,20.9 65.9,21.9 64.7,22.6 C63.5,23.3 62.1,23.7 60.5,23.7 Z M60.5,20.7 C61.4,20.7 62.2,20.5 62.9,20 C63.6,19.5 64.1,18.9 64.5,18.1 C64.9,17.3 65.1,16.4 65.1,15.3 C65.1,14.2 64.9,13.3 64.5,12.5 C64.1,11.7 63.6,11.1 62.9,10.6 C62.2,10.1 61.4,9.9 60.5,9.9 C59.6,9.9 58.8,10.1 58.1,10.6 C57.4,11.1 56.9,11.7 56.5,12.5 C56.1,13.3 55.9,14.2 55.9,15.3 C55.9,16.4 56.1,17.3 56.5,18.1 C56.9,18.9 57.4,19.5 58.1,20 C58.8,20.5 59.6,20.7 60.5,20.7 Z" fill="#000000"></path>
                <path d="M70,23.5 L70,9.5 L73,9.5 L73,11.7 C73.5,10.9 74.2,10.3 75.1,9.9 C76,9.5 77,9.3 78.1,9.3 C79.2,9.3 80.2,9.5 81.1,10 C82,10.5 82.7,11.2 83.2,12.1 C83.7,13 84,14.1 84,15.4 L84,23.5 L81,23.5 L81,15.5 C81,14.3 80.7,13.4 80.1,12.8 C79.5,12.2 78.6,11.9 77.5,11.9 C76.4,11.9 75.5,12.2 74.9,12.8 C74.3,13.4 74,14.3 74,15.5 L74,23.5 L70,23.5 Z" fill="#000000"></path>
                <path d="M95,23.5 L95,21.3 C94.5,22.1 93.8,22.7 92.9,23.1 C92,23.5 91,23.7 89.9,23.7 C88.8,23.7 87.8,23.5 86.9,23 C86,22.5 85.3,21.8 84.8,20.9 C84.3,20 84,18.9 84,17.6 L84,9.5 L87,9.5 L87,17.5 C87,18.7 87.3,19.6 87.9,20.2 C88.5,20.8 89.4,21.1 90.5,21.1 C91.6,21.1 92.5,20.8 93.1,20.2 C93.7,19.6 94,18.7 94,17.5 L94,9.5 L97,9.5 L97,23.5 L95,23.5 Z" fill="#000000"></path>
            </g>
        </g>
    </g>
</svg>
